<svg width="70" height="70" viewBox="0 0 70 70" fill="none" xmlns="http://www.w3.org/2000/svg">
<g clip-path="url(#clip0_9_8)">
<path d="M69.7391 44.0809C69.6468 43.4318 68.67 43.4827 68.6445 44.1382C68.4823 48.4336 67.3113 54.3391 62.8663 59.3473C61.9277 60.4036 60.9382 61.3805 59.9518 62.2523C56.9959 64.8614 52.4682 64.6864 49.6968 61.8896L39.3941 51.4977C36.9409 49.0223 33.0623 48.5768 30.0968 50.4286L21.7063 55.6659C20.16 56.63 18.1173 56.2736 17.0132 54.8323C16.0427 53.5659 14.9418 52.0005 14.2164 50.5686C13.7486 49.6491 7.57272 36.9346 14.2673 24.5477C18.5754 16.5805 25.8427 13.1314 29.0786 11.5945C29.9313 11.1905 30.7618 10.8373 31.5668 10.5255C34.1854 9.51364 37.1954 10.4364 38.6909 12.7814C39.1236 13.4591 39.5086 14.2418 39.7823 15.1359C40.9436 18.8968 40.0527 25.2445 40.0145 25.62C40.0145 25.62 40.1545 20.93 39.4195 17.5573C38.6877 14.1845 36.8518 12.3964 36.8518 12.3964C36.8518 12.3964 32.06 15.925 33.4345 22.2536C34.4336 26.8577 40.3136 31.3218 40.3136 31.3218C40.3136 31.3218 40.6859 30.4055 40.9054 29.96C41.5259 28.7095 44.9177 24.8023 45.2009 24.0514C46.3718 20.9682 46.2191 18.1141 44.4023 15.3555C43.8295 14.4836 43.0913 13.755 42.2291 13.1568C41.2745 12.495 38.6432 10.7291 36.8868 9.56454C36.7468 9.47227 36.8391 9.25909 37.0045 9.29409C40.8641 10.1341 47.95 12.9023 52.0163 17.3791C55.7104 21.4455 57.4795 27.8664 57.7245 28.4264C57.5782 28.0764 55.265 22.6864 51.0045 18.2191C50.0118 17.1786 48.2045 15.9473 47.2723 15.9727C50.2027 21.7636 44.5582 28.7923 44.3354 29.0468C45.5763 30.3005 47.0909 31.3441 48.9363 32.1714C51.4118 33.2818 54.0368 33.8323 56.7382 34.0582C57.2218 34.0995 57.7023 34.1441 58.1859 34.1855C59.5891 34.1855 60.9954 34.1855 62.3986 34.1855C62.4845 34.1855 62.6436 34.2618 62.6023 34.055C62.4432 33.285 62.2491 32.5214 62.1313 31.745C61.7973 29.5527 62.2013 27.4527 62.3604 25.2064C62.3986 24.6527 62.9809 13.5195 53.3336 9.49136C49.1941 7.76364 43.2632 8.60045 40.6763 8.97273C40.2563 9.03318 39.7982 8.85182 39.3591 8.81045C38.4363 8.72454 37.6695 8.61318 36.7786 8.56227C36.6386 8.55273 36.5813 8.38091 36.6863 8.29182C37.0427 7.98636 37.3291 7.72227 37.3736 7.66182C37.9432 7.08591 38.4586 6.44954 38.9041 5.77182C39.2095 5.26591 39.5341 4.76954 39.8204 4.24136C40.2723 3.37273 40.3232 2.345 40.0941 1.40636C40.0813 1.20909 39.4991 -0.32773 39.2318 0.0509068C38.6336 0.938634 38.3791 1.68 38.0513 2.415C37.835 2.94954 37.7459 3.57636 37.6504 4.14591C37.5709 4.53091 37.4277 4.94136 37.2782 5.31045C36.8741 6.32864 36.3713 7.30227 35.77 8.22182C35.6459 8.41273 35.4263 8.53045 35.1973 8.53682C30.345 8.49545 20.2745 9.26545 12.3995 15.5623C-0.467736 25.8555 -0.0572824 41.3986 0.0190812 43.1168C0.270445 46.4577 1.23454 53.2032 5.76226 60.2127C7.7159 63.2355 9.89544 65.6314 11.9477 67.4991C14.8782 70.1623 19.4218 70.0732 22.2409 67.2955C24.6845 64.89 27.7104 61.9118 30.2623 59.4014C33.1895 56.5186 37.9463 56.5536 40.8354 59.4777C43.47 62.1441 46.6073 65.3227 49.035 67.7823C51.5741 70.3532 55.6468 70.7477 58.6154 68.6668C62.4273 65.9941 67.0695 61.4727 69.0613 54.5014C70.1845 50.575 70.1527 46.9636 69.7391 44.0841V44.0809Z" fill="#FCFCFC"/>
</g>
<defs>
<clipPath id="clip0_9_8">
<rect width="70" height="70" fill="white"/>
</clipPath>
</defs>
</svg>
